<svg width="512" height="512" viewBox="0 0 512 512" fill="none" xmlns="http://www.w3.org/2000/svg">
<path d="M12.8125 246.062C12.8125 242.229 14.6042 238.979 18.1875 236.312C21.6458 233.771 25.7708 232.5 30.5625 232.5H36.9375C40.8125 232.5 44.5625 233.396 48.1875 235.188C49.6875 235.979 50.8958 236.812 51.8125 237.688L43.4375 244.125C42.0625 242.208 40.1875 241.104 37.8125 240.812C37.5208 240.771 37.2292 240.75 36.9375 240.75H30.5625C27.4375 240.75 25.0833 241.625 23.5 243.375C22.7917 244.25 22.4375 245.146 22.4375 246.062C22.4375 247.688 24.1667 249.083 27.625 250.25C28.7083 250.625 30.5417 251.146 33.125 251.812C39.375 253.438 43.75 255.021 46.25 256.562C50.3333 259.062 52.3958 262.354 52.4375 266.438C52.4375 270.229 50.6042 273.458 46.9375 276.125C43.3125 278.708 39.0208 280 34.0625 280H27.6875C23.6458 280 19.7292 279.104 15.9375 277.312C14.3542 276.521 13.1042 275.688 12.1875 274.812L20.4375 268.438C21.8958 270.271 23.9375 271.354 26.5625 271.688C26.9792 271.729 27.3542 271.75 27.6875 271.75H34.0625C37.4375 271.75 39.9792 270.854 41.6875 269.062C42.4375 268.229 42.8125 267.354 42.8125 266.438C42.8125 264.604 41.0833 263.083 37.625 261.875C37.125 261.667 34.1042 260.812 28.5625 259.312C22.1875 257.604 17.8542 255.542 15.5625 253.125C13.7292 251.125 12.8125 248.771 12.8125 246.062ZM103.5 242.312L92.875 273.062H82.75L72.125 242.312L68.5 280H58.25L62.625 240.438C63.0417 236.896 64.7083 234.417 67.625 233C68.8333 232.458 70.1042 232.188 71.4375 232.188C74.3125 232.188 76.5 233.292 78 235.5C78.375 236.042 78.6875 236.625 78.9375 237.25L87.8125 263.25L96.6875 237.25C97.6458 234.667 99.5 233.062 102.25 232.438C102.917 232.271 103.562 232.188 104.188 232.188C107.188 232.188 109.542 233.354 111.25 235.688C112.208 237.062 112.792 238.646 113 240.438L117.375 280H107.125L103.5 242.312ZM155 273.688H134.188L139.312 265.438H152.125L144 242.125L130.75 280H120.5L134.438 240.25C136.479 234.708 139.667 231.917 144 231.875C148.333 231.917 151.5 234.708 153.5 240.25L167.5 280H157.25L155 273.688ZM182.375 240.75V280H172.812V240.875C172.812 238.042 174.021 235.792 176.438 234.125C178.062 233.042 179.854 232.5 181.812 232.5H194.75C200.542 232.5 205.188 234.229 208.688 237.688C211.646 240.646 213.125 244.292 213.125 248.625V250.438C213.125 255.854 210.979 260.062 206.688 263.062C205.062 264.188 203.271 265.042 201.312 265.625L214.188 280H202.25L190.375 266.562H183L188.125 258.312H194.75C198.667 258.312 201.312 256.958 202.688 254.25C203.229 253.125 203.5 251.854 203.5 250.438V248.625C203.5 244.875 201.812 242.438 198.438 241.312C197.312 240.938 196.083 240.75 194.75 240.75H182.375ZM241 280H231.375V240.875C231.375 238.083 232.583 235.854 235 234.188C236.625 233.062 238.438 232.5 240.438 232.5H254.625V240.75H241V280ZM233.188 232.5L228.062 240.75H218.625V232.5H233.188ZM283.875 280.625H277.5C272.333 280.625 267.938 278.792 264.312 275.125C260.854 271.625 259.125 267.438 259.125 262.562V249.938C259.125 244.854 260.958 240.542 264.625 237C268.25 233.583 272.542 231.875 277.5 231.875H283.875C289.042 231.875 293.438 233.708 297.062 237.375C300.521 240.875 302.25 245.062 302.25 249.938V262.562C302.25 267.646 300.417 271.958 296.75 275.5C293.125 278.917 288.833 280.625 283.875 280.625ZM277.5 272.375H283.875C286.75 272.375 289.062 271.083 290.812 268.5C292.021 266.708 292.625 264.729 292.625 262.562V249.938C292.625 246.646 291.438 244.021 289.062 242.062C287.521 240.771 285.792 240.125 283.875 240.125H277.5C274.625 240.125 272.312 241.396 270.562 243.938C269.312 245.729 268.688 247.729 268.688 249.938V262.562C268.688 265.812 269.854 268.417 272.188 270.375C273.812 271.708 275.583 272.375 277.5 272.375ZM319.438 260.625V280H309.875V240.875C309.875 238.042 311.083 235.792 313.5 234.125C315.125 233.042 316.917 232.5 318.875 232.5H348.438L343.938 240.75H319.438V252.375H342.062V260.625H319.438ZM362.812 260.625V280H353.25V240.875C353.25 238.042 354.458 235.792 356.875 234.125C358.5 233.042 360.292 232.5 362.25 232.5H391.812L387.312 240.75H362.812V252.375H385.438V260.625H362.812ZM397.062 232.5H406.625V280H397.062V232.5ZM423.312 250.562V261.938C423.312 265.188 424.479 267.792 426.812 269.75C428.438 271.083 430.208 271.75 432.125 271.75H438.5C441.083 271.75 443.271 270.875 445.062 269.125C445.312 268.875 445.521 268.646 445.688 268.438L454 274.812C451.667 277.021 448.062 278.583 443.188 279.5C441.479 279.833 439.917 280 438.5 280H432.125C426.958 280 422.562 278.167 418.938 274.5C415.479 271 413.75 266.812 413.75 261.938V250.562C413.75 245.479 415.583 241.167 419.25 237.625C422.875 234.208 427.167 232.5 432.125 232.5H438.5C442.542 232.5 446.458 233.396 450.25 235.188C451.833 235.979 453.083 236.812 454 237.688L445.688 244.125C444.229 242.25 442.208 241.146 439.625 240.812C439.208 240.771 438.833 240.75 438.5 240.75H432.125C429.25 240.75 426.938 242.021 425.188 244.562C423.938 246.354 423.312 248.354 423.312 250.562ZM470.062 260.625V271.75H494.562L499.062 280H469.5C466.458 280 464.021 278.854 462.188 276.562C461.021 275.062 460.438 273.417 460.438 271.625V240.875C460.438 238.083 461.646 235.854 464.062 234.188C465.688 233.062 467.5 232.5 469.5 232.5H499.062L494.562 240.75H470.062V252.375H492.625V260.625H470.062Z" fill="white"/>
<mask id="mask0_1_2" style="mask-type:alpha" maskUnits="userSpaceOnUse" x="231" y="121" width="270" height="270">
<circle cx="366" cy="256" r="130" stroke="white" stroke-width="10"/>
</mask>
<g mask="url(#mask0_1_2)">
<mask id="path-3-outside-1_1_2" maskUnits="userSpaceOnUse" x="237" y="121" width="258" height="146" fill="black">
<rect fill="white" x="237" y="121" width="258" height="146"/>
<path d="M481.473 208.136C472.006 185.297 455.98 165.779 435.42 152.049C414.861 138.319 390.692 130.994 365.969 131C341.246 131.006 317.081 138.343 296.528 152.084C275.975 165.824 259.958 185.35 250.503 208.193L366 256L481.473 208.136Z"/>
</mask>
<path d="M481.473 208.136C472.006 185.297 455.98 165.779 435.42 152.049C414.861 138.319 390.692 130.994 365.969 131C341.246 131.006 317.081 138.343 296.528 152.084C275.975 165.824 259.958 185.35 250.503 208.193L366 256L481.473 208.136Z" stroke="white" stroke-width="20" mask="url(#path-3-outside-1_1_2)"/>
<mask id="path-4-outside-2_1_2" maskUnits="userSpaceOnUse" x="237" y="245" width="258" height="146" fill="black">
<rect fill="white" x="237" y="245" width="258" height="146"/>
<path d="M250.474 303.736C259.916 326.585 275.92 346.121 296.465 359.874C317.009 373.627 341.17 380.979 365.893 381C390.616 381.021 414.789 373.711 435.357 359.993C455.925 346.276 471.963 326.767 481.444 303.934L366 256L250.474 303.736Z"/>
</mask>
<path d="M250.474 303.736C259.916 326.585 275.92 346.121 296.465 359.874C317.009 373.627 341.17 380.979 365.893 381C390.616 381.021 414.789 373.711 435.357 359.993C455.925 346.276 471.963 326.767 481.444 303.934L366 256L250.474 303.736Z" stroke="white" stroke-width="20" mask="url(#path-4-outside-2_1_2)"/>
</g>
</svg>
